# Blender v2.80 (sub 75) OBJ File: ''
# www.blender.org
mtllib lab_table.mtl
o Cube.001
v -0.350000 0.700000 0.700000
v 0.350000 0.700000 0.650000
v -0.350000 0.700000 0.650000
v 0.350000 0.700000 0.700000
v 0.350000 -0.700000 0.650000
v 0.350000 -0.700000 0.700000
v -0.350000 -0.700000 0.650000
v -0.350000 -0.700000 0.700000
vt -1.234075 0.992820
vt 0.499999 0.730940
vt 0.499999 0.992820
vt -1.234075 0.730940
vt 0.499999 0.469060
vt 0.499999 0.992820
vt 2.234073 0.730940
vt 2.234073 0.992820
vt 0.499999 0.730940
vt 2.234073 0.469060
vt -0.078029 0.469060
vt -1.234075 0.207180
vt -0.078029 0.207180
vt 1.078018 0.469060
vt -0.078029 0.207180
vt 1.078018 0.207180
vt -1.234075 0.469060
vt 0.499999 0.469060
vt -1.234075 0.469060
vt -0.078029 0.469060
vn -0.0000 1.0000 0.0000
vn 1.0000 0.0000 0.0000
vn 0.0000 -1.0000 0.0000
vn -1.0000 -0.0000 0.0000
vn -0.0000 0.0000 -1.0000
vn -0.0000 0.0000 1.0000
usemtl lab_table
s 1
f 1/1/1 2/2/1 3/3/1
f 4/4/2 5/5/2 2/2/2
f 6/6/3 7/7/3 5/8/3
f 8/9/4 3/10/4 7/7/4
f 5/11/5 3/12/5 2/13/5
f 4/14/6 8/15/6 6/16/6
f 1/1/1 4/4/1 2/2/1
f 4/4/2 6/17/2 5/5/2
f 6/6/3 8/9/3 7/7/3
f 8/9/4 1/18/4 3/10/4
f 5/11/5 7/19/5 3/12/5
f 4/14/6 1/20/6 8/15/6
o Cube.002
v -0.250000 0.600000 0.650000
v -0.300000 0.600000 0.000000
v -0.250000 0.600000 0.000000
v -0.300000 0.600000 0.650000
v -0.300000 0.650000 0.000000
v -0.300000 0.650000 0.650000
v -0.250000 0.650000 0.000000
v -0.250000 0.650000 0.650000
vt 0.224938 0.077779
vt 0.349675 0.122335
vt 0.224938 0.122335
vt 0.349675 0.077779
vt 0.474412 0.122335
vt 0.474412 0.077779
vt 0.599149 0.122335
vt 0.599149 0.077779
vt 0.723886 0.122335
vt 0.599149 0.166892
vt 0.474412 0.166892
vt 0.474412 0.033222
vt 0.723886 0.077779
vt 0.599149 0.033222
vn 0.0000 -1.0000 0.0000
vn -1.0000 -0.0000 0.0000
vn 0.0000 1.0000 0.0000
vn 1.0000 0.0000 0.0000
vn 0.0000 0.0000 -1.0000
vn 0.0000 0.0000 1.0000
usemtl lab_table
s 1
f 9/21/7 10/22/7 11/23/7
f 12/24/8 13/25/8 10/22/8
f 14/26/9 15/27/9 13/25/9
f 16/28/10 11/29/10 15/27/10
f 13/25/11 11/30/11 10/31/11
f 12/32/12 16/28/12 14/26/12
f 9/21/7 12/24/7 10/22/7
f 12/24/8 14/26/8 13/25/8
f 14/26/9 16/28/9 15/27/9
f 16/28/10 9/33/10 11/29/10
f 13/25/11 15/27/11 11/30/11
f 12/32/12 9/34/12 16/28/12
o Cube.003
v 0.000000 -0.600000 0.600000
v 0.300000 -0.600000 0.650000
v 0.300000 -0.600000 0.600000
v 0.000000 -0.600000 0.650000
v 0.300000 -0.650000 0.650000
v 0.000000 -0.650000 0.650000
v 0.300000 -0.650000 0.600000
v 0.000000 -0.650000 0.600000
v 0.300000 0.600000 0.650000
v -0.000000 0.600000 0.600000
v 0.300000 0.600000 0.600000
v 0.300000 0.650000 0.650000
v -0.000000 0.600000 0.650000
v 0.300000 0.650000 0.600000
v -0.000000 0.650000 0.650000
v -0.000000 0.650000 0.600000
v -0.300000 -0.600000 0.650000
v -0.300000 -0.600000 0.600000
v -0.300000 -0.650000 0.650000
v -0.300000 -0.650000 0.600000
v -0.300000 0.600000 0.650000
v -0.300000 0.600000 0.600000
v -0.300000 0.650000 0.650000
v -0.300000 0.650000 0.600000
v 0.250000 -0.650000 0.600000
v 0.250000 -0.000282 0.650000
v 0.250000 -0.000282 0.600000
v 0.250000 -0.650000 0.650000
v 0.300000 -0.000282 0.650000
v 0.300000 -0.650000 0.650000
v 0.300000 -0.000282 0.600000
v 0.300000 -0.650000 0.600000
v -0.250000 -0.000282 0.650000
v -0.250000 -0.650000 0.600000
v -0.250000 -0.000282 0.600000
v -0.300000 -0.000282 0.650000
v -0.250000 -0.650000 0.650000
v -0.300000 -0.000282 0.600000
v -0.300000 -0.650000 0.650000
v -0.300000 -0.650000 0.600000
v 0.250000 0.000282 0.650000
v 0.250000 0.650282 0.600000
v 0.250000 0.000282 0.600000
v 0.300000 0.000282 0.650000
v 0.250000 0.650282 0.650000
v 0.300000 0.000282 0.600000
v 0.300000 0.650282 0.650000
v 0.300000 0.650282 0.600000
v -0.250000 0.650282 0.600000
v -0.250000 0.000282 0.650000
v -0.250000 0.000282 0.600000
v -0.250000 0.650282 0.650000
v -0.300000 0.000282 0.650000
v -0.300000 0.650282 0.650000
v -0.300000 0.000282 0.600000
v -0.300000 0.650282 0.600000
vt 0.224938 0.077779
vt 0.349675 0.122335
vt 0.224938 0.122335
vt 0.349675 0.077779
vt 0.474412 0.122335
vt 0.474412 0.077779
vt 0.599149 0.122335
vt 0.599149 0.077779
vt 0.723886 0.122335
vt 0.599149 0.166892
vt 0.474412 0.166892
vt 0.349675 0.122335
vt 0.224938 0.077779
vt 0.224938 0.122335
vt 0.474412 0.122335
vt 0.349675 0.077779
vt 0.599149 0.122335
vt 0.474412 0.077779
vt 0.723886 0.122335
vt 0.599149 0.077779
vt 0.599149 0.166892
vt 0.474412 0.166892
vt 0.349675 0.122335
vt 0.224938 0.122335
vt 0.474412 0.122335
vt 0.599149 0.122335
vt 0.723886 0.122335
vt 0.599149 0.166892
vt 0.474412 0.166892
vt 0.474412 0.033222
vt 0.349675 0.122335
vt 0.224938 0.122335
vt 0.474412 0.122335
vt 0.599149 0.122335
vt 0.723886 0.122335
vt 0.599149 0.166892
vt 0.474412 0.166892
vt 0.474412 0.033222
vt 0.723886 0.077779
vt 0.723886 0.077779
vt 0.599149 0.033222
vt 0.599149 0.033222
vt 0.224938 0.189170
vt 0.224938 0.189170
vt 0.224938 0.189170
vt 0.224938 0.189170
vt 0.224938 0.189170
vt 0.224938 0.189170
vt 0.224938 0.189170
vt 0.224938 0.189170
vt 0.224938 0.189170
vt 0.224938 0.189170
vt 0.224938 0.189170
vt 0.224938 0.189170
vt 0.224938 0.189170
vt 0.224938 0.189170
vt 0.224938 0.189170
vt 0.224938 0.189170
vt 0.224938 0.189170
vt 0.224938 0.189170
vt 0.224938 0.189170
vt 0.224938 0.189170
vt 0.224938 0.189170
vt 0.224938 0.189170
vt 0.224938 0.189170
vt 0.224938 0.189170
vt 0.224938 0.189170
vt 0.224938 0.189170
vt 0.224938 0.189170
vt 0.224938 0.189170
vt 0.224938 0.189170
vt 0.224938 0.189170
vt 0.224938 0.189170
vt 0.224938 0.189170
vn -0.0000 1.0000 0.0000
vn 0.0000 0.0000 1.0000
vn 0.0000 -1.0000 0.0000
vn -0.0000 0.0000 -1.0000
vn 1.0000 0.0000 0.0000
vn -1.0000 -0.0000 0.0000
usemtl lab_table
s 1
f 17/35/13 18/36/13 19/37/13
f 20/38/14 21/39/14 18/36/14
f 22/40/15 23/41/15 21/39/15
f 24/42/16 19/43/16 23/41/16
f 21/39/17 19/44/17 18/45/17
f 25/46/15 26/47/15 27/48/15
f 28/49/14 29/50/14 25/46/14
f 30/51/13 31/52/13 28/49/13
f 27/53/16 32/54/16 30/51/16
f 27/55/17 28/49/17 25/56/17
f 33/57/13 17/35/13 34/58/13
f 35/59/14 20/38/14 33/57/14
f 36/60/15 22/40/15 35/59/15
f 34/61/16 24/42/16 36/60/16
f 34/62/18 35/59/18 33/63/18
f 24/42/17 20/64/17 22/40/17
f 26/47/15 37/65/15 38/66/15
f 29/50/14 39/67/14 37/65/14
f 31/52/13 40/68/13 39/67/13
f 32/54/16 38/69/16 40/68/16
f 39/67/18 38/70/18 37/71/18
f 29/72/17 32/54/17 31/52/17
f 17/35/13 20/38/13 18/36/13
f 20/38/14 22/40/14 21/39/14
f 22/40/15 24/42/15 23/41/15
f 24/42/16 17/73/16 19/43/16
f 21/39/17 23/41/17 19/44/17
f 25/46/15 29/50/15 26/47/15
f 28/49/14 31/52/14 29/50/14
f 30/51/13 32/54/13 31/52/13
f 27/53/16 26/74/16 32/54/16
f 27/55/17 30/51/17 28/49/17
f 33/57/13 20/38/13 17/35/13
f 35/59/14 22/40/14 20/38/14
f 36/60/15 24/42/15 22/40/15
f 34/61/16 17/73/16 24/42/16
f 34/62/18 36/60/18 35/59/18
f 24/42/17 17/75/17 20/64/17
f 26/47/15 29/50/15 37/65/15
f 29/50/14 31/52/14 39/67/14
f 31/52/13 32/54/13 40/68/13
f 32/54/16 26/74/16 38/69/16
f 39/67/18 40/68/18 38/70/18
f 29/72/17 26/76/17 32/54/17
f 41/77/18 42/78/18 43/79/18
f 44/80/14 45/81/14 42/78/14
f 46/82/17 47/83/17 45/81/17
f 48/84/16 43/79/16 47/83/16
f 45/81/13 43/79/13 42/78/13
f 44/80/15 48/84/15 46/82/15
f 49/85/17 50/86/17 51/87/17
f 52/88/14 53/89/14 49/85/14
f 54/90/18 55/91/18 52/88/18
f 51/87/16 56/92/16 54/90/16
f 51/87/13 52/88/13 49/85/13
f 56/92/15 53/89/15 55/91/15
f 57/93/18 58/94/18 59/95/18
f 60/96/14 61/97/14 57/93/14
f 62/98/17 63/99/17 60/96/17
f 59/95/16 64/100/16 62/98/16
f 59/95/15 60/96/15 57/93/15
f 64/100/13 61/97/13 63/99/13
f 65/101/17 66/102/17 67/103/17
f 68/104/14 69/105/14 66/102/14
f 70/106/18 71/107/18 69/105/18
f 72/108/16 67/103/16 71/107/16
f 69/105/15 67/103/15 66/102/15
f 68/104/13 72/108/13 70/106/13
f 41/77/18 44/80/18 42/78/18
f 44/80/14 46/82/14 45/81/14
f 46/82/17 48/84/17 47/83/17
f 48/84/16 41/77/16 43/79/16
f 45/81/13 47/83/13 43/79/13
f 44/80/15 41/77/15 48/84/15
f 49/85/17 53/89/17 50/86/17
f 52/88/14 55/91/14 53/89/14
f 54/90/18 56/92/18 55/91/18
f 51/87/16 50/86/16 56/92/16
f 51/87/13 54/90/13 52/88/13
f 56/92/15 50/86/15 53/89/15
f 57/93/18 61/97/18 58/94/18
f 60/96/14 63/99/14 61/97/14
f 62/98/17 64/100/17 63/99/17
f 59/95/16 58/94/16 64/100/16
f 59/95/15 62/98/15 60/96/15
f 64/100/13 58/94/13 61/97/13
f 65/101/17 68/104/17 66/102/17
f 68/104/14 70/106/14 69/105/14
f 70/106/18 72/108/18 71/107/18
f 72/108/16 65/101/16 67/103/16
f 69/105/15 71/107/15 67/103/15
f 68/104/13 65/101/13 72/108/13
o Cube.004
v 0.025000 -0.600000 0.060000
v 0.300000 -0.600000 0.110000
v 0.300000 -0.600000 0.060000
v 0.025000 -0.600000 0.110000
v 0.300000 -0.650063 0.110000
v 0.025000 -0.650063 0.110000
v 0.300000 -0.650063 0.060000
v 0.025000 -0.650063 0.060000
v 0.300000 0.600000 0.110000
v 0.025000 0.600000 0.060000
v 0.300000 0.600000 0.060000
v 0.300000 0.650000 0.110000
v 0.025000 0.600000 0.110000
v 0.300000 0.650000 0.060000
v 0.025000 0.650000 0.110000
v 0.025000 0.650000 0.060000
v -0.300000 -0.600000 0.110000
v -0.300000 -0.600000 0.060000
v -0.300000 -0.650063 0.110000
v -0.300000 -0.650063 0.060000
v -0.300000 0.600000 0.110000
v -0.300000 0.600000 0.060000
v -0.300000 0.650000 0.110000
v -0.300000 0.650000 0.060000
v 0.250000 -0.650063 0.110000
v 0.300000 -0.650063 0.060000
v 0.300000 -0.650063 0.110000
v 0.025000 -0.000282 0.110000
v 0.025000 -0.650063 0.060000
v 0.025000 -0.000282 0.060000
v -0.025000 -0.000282 0.110000
v 0.025000 -0.650063 0.110000
v -0.025000 -0.000282 0.060000
v -0.025000 -0.650063 0.110000
v -0.025000 -0.650063 0.060000
v 0.300000 0.650282 0.060000
v 0.250000 0.650282 0.110000
v 0.300000 0.650282 0.110000
v 0.025000 0.650282 0.060000
v 0.025000 0.000282 0.110000
v 0.025000 0.000282 0.060000
v 0.025000 0.650282 0.110000
v -0.025000 0.000282 0.110000
v -0.025000 0.650282 0.110000
v -0.025000 0.000282 0.060000
v -0.025000 0.650282 0.060000
v 0.250000 -0.650063 0.060000
v 0.250000 0.650282 0.060000
vt 0.224938 0.077779
vt 0.349675 0.122335
vt 0.224938 0.122335
vt 0.349675 0.077779
vt 0.474412 0.122335
vt 0.474412 0.077779
vt 0.599149 0.122335
vt 0.599149 0.077779
vt 0.723886 0.122335
vt 0.599149 0.166892
vt 0.474412 0.166892
vt 0.349675 0.122335
vt 0.224938 0.077779
vt 0.224938 0.122335
vt 0.474412 0.122335
vt 0.349675 0.077779
vt 0.599149 0.122335
vt 0.474412 0.077779
vt 0.723886 0.122335
vt 0.599149 0.077779
vt 0.599149 0.166892
vt 0.474412 0.166892
vt 0.349675 0.122335
vt 0.224938 0.122335
vt 0.474412 0.122335
vt 0.599149 0.122335
vt 0.723886 0.122335
vt 0.599149 0.166892
vt 0.474412 0.166892
vt 0.474412 0.033222
vt 0.349675 0.122335
vt 0.224938 0.122335
vt 0.474412 0.122335
vt 0.599149 0.122335
vt 0.723886 0.122335
vt 0.599149 0.166892
vt 0.474412 0.166892
vt 0.474412 0.033222
vt 0.723886 0.077779
vt 0.723886 0.077779
vt 0.599149 0.033222
vt 0.599149 0.033222
vt 0.224938 0.189170
vt 0.224938 0.189170
vt 0.224938 0.189170
vt 0.224938 0.189170
vt 0.224938 0.189170
vt 0.224938 0.189170
vt 0.224938 0.189170
vt 0.224938 0.189170
vt 0.224938 0.189170
vt 0.224938 0.189170
vt 0.224938 0.189170
vt 0.224938 0.189170
vt 0.224938 0.189170
vt 0.224938 0.189170
vt 0.224938 0.189170
vt 0.224938 0.189170
vt 0.224938 0.189170
vt 0.224938 0.189170
vt 0.224938 0.189170
vt 0.224938 0.189170
vt 0.224938 0.189170
vt 0.224938 0.189170
vt 0.224938 0.189170
vt 0.224938 0.189170
vn -0.0000 1.0000 0.0000
vn -0.0000 0.0000 1.0000
vn 0.0000 -1.0000 0.0000
vn -0.0000 0.0000 -1.0000
vn 1.0000 0.0000 0.0000
vn -1.0000 -0.0000 0.0000
usemtl lab_table
s 1
f 73/109/19 74/110/19 75/111/19
f 76/112/20 77/113/20 74/110/20
f 78/114/21 79/115/21 77/113/21
f 80/116/22 75/117/22 79/115/22
f 77/113/23 75/118/23 74/119/23
f 81/120/21 82/121/21 83/122/21
f 84/123/20 85/124/20 81/120/20
f 86/125/19 87/126/19 84/123/19
f 83/127/22 88/128/22 86/125/22
f 83/129/23 84/123/23 81/130/23
f 89/131/19 73/109/19 90/132/19
f 91/133/20 76/112/20 89/131/20
f 92/134/21 78/114/21 91/133/21
f 90/135/22 80/116/22 92/134/22
f 90/136/24 91/133/24 89/137/24
f 80/116/23 76/138/23 78/114/23
f 82/121/21 93/139/21 94/140/21
f 85/124/20 95/141/20 93/139/20
f 87/126/19 96/142/19 95/141/19
f 88/128/22 94/143/22 96/142/22
f 95/141/24 94/144/24 93/145/24
f 85/146/23 88/128/23 87/126/23
f 73/109/19 76/112/19 74/110/19
f 76/112/20 78/114/20 77/113/20
f 78/114/21 80/116/21 79/115/21
f 80/116/22 73/147/22 75/117/22
f 77/113/23 79/115/23 75/118/23
f 81/120/21 85/124/21 82/121/21
f 84/123/20 87/126/20 85/124/20
f 86/125/19 88/128/19 87/126/19
f 83/127/22 82/148/22 88/128/22
f 83/129/23 86/125/23 84/123/23
f 89/131/19 76/112/19 73/109/19
f 91/133/20 78/114/20 76/112/20
f 92/134/21 80/116/21 78/114/21
f 90/135/22 73/147/22 80/116/22
f 90/136/24 92/134/24 91/133/24
f 80/116/23 73/149/23 76/138/23
f 82/121/21 85/124/21 93/139/21
f 85/124/20 87/126/20 95/141/20
f 87/126/19 88/128/19 96/142/19
f 88/128/22 82/148/22 94/143/22
f 95/141/24 96/142/24 94/144/24
f 85/146/23 82/150/23 88/128/23
f 97/151/21 98/152/21 99/153/21
f 100/154/23 101/155/23 102/156/23
f 103/157/20 104/158/20 100/154/20
f 105/159/24 106/160/24 103/157/24
f 102/156/22 107/161/22 105/159/22
f 102/156/19 103/157/19 100/154/19
f 107/161/21 104/158/21 106/160/21
f 108/162/19 109/163/19 110/164/19
f 111/165/23 112/166/23 113/167/23
f 114/168/20 115/169/20 112/166/20
f 116/170/24 117/171/24 115/169/24
f 118/172/22 113/167/22 117/171/22
f 115/169/21 113/167/21 112/166/21
f 114/168/19 118/172/19 116/170/19
f 97/151/21 119/173/21 98/152/21
f 100/154/23 104/158/23 101/155/23
f 103/157/20 106/160/20 104/158/20
f 105/159/24 107/161/24 106/160/24
f 102/156/22 101/155/22 107/161/22
f 102/156/19 105/159/19 103/157/19
f 107/161/21 101/155/21 104/158/21
f 108/162/19 120/174/19 109/163/19
f 111/165/23 114/168/23 112/166/23
f 114/168/20 116/170/20 115/169/20
f 116/170/24 118/172/24 117/171/24
f 118/172/22 111/165/22 113/167/22
f 115/169/21 117/171/21 113/167/21
f 114/168/19 111/165/19 118/172/19
o Cube.006
v -0.300000 -0.600000 0.000000
v -0.250000 -0.600000 0.650000
v -0.250000 -0.600000 0.000000
v -0.300000 -0.650063 0.000000
v -0.300000 -0.600000 0.650000
v -0.250000 -0.650063 0.000000
v -0.300000 -0.650063 0.650000
v -0.250000 -0.650063 0.650000
vt 0.349675 0.122335
vt 0.224938 0.077779
vt 0.224938 0.122335
vt 0.474412 0.122335
vt 0.349675 0.077779
vt 0.599149 0.122335
vt 0.474412 0.077779
vt 0.723886 0.122335
vt 0.599149 0.077779
vt 0.599149 0.166892
vt 0.474412 0.166892
vt 0.474412 0.033222
vt 0.723886 0.077779
vt 0.599149 0.033222
vn 0.0000 1.0000 0.0000
vn -1.0000 -0.0000 0.0000
vn 0.0000 -1.0000 0.0000
vn 1.0000 0.0000 0.0000
vn 0.0000 0.0000 -1.0000
vn 0.0000 0.0000 1.0000
usemtl lab_table
s 1
f 121/175/25 122/176/25 123/177/25
f 124/178/26 125/179/26 121/175/26
f 126/180/27 127/181/27 124/178/27
f 123/182/28 128/183/28 126/180/28
f 123/184/29 124/178/29 121/185/29
f 128/183/30 125/186/30 127/181/30
f 121/175/25 125/179/25 122/176/25
f 124/178/26 127/181/26 125/179/26
f 126/180/27 128/183/27 127/181/27
f 123/182/28 122/187/28 128/183/28
f 123/184/29 126/180/29 124/178/29
f 128/183/30 122/188/30 125/186/30
o Cube.007
v 0.250000 -0.600000 0.650000
v 0.300000 -0.600000 0.000000
v 0.250000 -0.600000 0.000000
v 0.300000 -0.600000 0.650000
v 0.300000 -0.650063 0.000000
v 0.300000 -0.650063 0.650000
v 0.250000 -0.650063 0.000000
v 0.250000 -0.650063 0.650000
vt 0.224938 0.077779
vt 0.349675 0.122335
vt 0.224938 0.122335
vt 0.349675 0.077779
vt 0.474412 0.122335
vt 0.474412 0.077779
vt 0.599149 0.122335
vt 0.599149 0.077779
vt 0.723886 0.122335
vt 0.599149 0.166892
vt 0.474412 0.166892
vt 0.474412 0.033222
vt 0.723886 0.077779
vt 0.599149 0.033222
vn 0.0000 1.0000 0.0000
vn 1.0000 0.0000 0.0000
vn 0.0000 -1.0000 0.0000
vn -1.0000 -0.0000 0.0000
vn 0.0000 0.0000 -1.0000
vn 0.0000 0.0000 1.0000
usemtl lab_table
s 1
f 129/189/31 130/190/31 131/191/31
f 132/192/32 133/193/32 130/190/32
f 134/194/33 135/195/33 133/193/33
f 136/196/34 131/197/34 135/195/34
f 133/193/35 131/198/35 130/199/35
f 132/200/36 136/196/36 134/194/36
f 129/189/31 132/192/31 130/190/31
f 132/192/32 134/194/32 133/193/32
f 134/194/33 136/196/33 135/195/33
f 136/196/34 129/201/34 131/197/34
f 133/193/35 135/195/35 131/198/35
f 132/200/36 129/202/36 136/196/36
o Cube.008
v 0.300000 0.600000 0.000000
v 0.250000 0.600000 0.650000
v 0.250000 0.600000 0.000000
v 0.300000 0.650000 0.000000
v 0.300000 0.600000 0.650000
v 0.250000 0.650000 0.000000
v 0.300000 0.650000 0.650000
v 0.250000 0.650000 0.650000
vt 0.349675 0.122335
vt 0.224938 0.077779
vt 0.224938 0.122335
vt 0.474412 0.122335
vt 0.349675 0.077779
vt 0.599149 0.122335
vt 0.474412 0.077779
vt 0.723886 0.122335
vt 0.599149 0.077779
vt 0.599149 0.166892
vt 0.474412 0.166892
vt 0.474412 0.033222
vt 0.723886 0.077779
vt 0.599149 0.033222
vn 0.0000 -1.0000 0.0000
vn 1.0000 0.0000 0.0000
vn 0.0000 1.0000 0.0000
vn -1.0000 0.0000 0.0000
vn 0.0000 0.0000 -1.0000
vn 0.0000 0.0000 1.0000
usemtl lab_table
s 1
f 137/203/37 138/204/37 139/205/37
f 140/206/38 141/207/38 137/203/38
f 142/208/39 143/209/39 140/206/39
f 139/210/40 144/211/40 142/208/40
f 139/212/41 140/206/41 137/213/41
f 144/211/42 141/214/42 143/209/42
f 137/203/37 141/207/37 138/204/37
f 140/206/38 143/209/38 141/207/38
f 142/208/39 144/211/39 143/209/39
f 139/210/40 138/215/40 144/211/40
f 139/212/41 142/208/41 140/206/41
f 144/211/42 138/216/42 141/214/42
